<svg width="1115" height="400" viewBox="0 0 1115 400" fill="none" xmlns="http://www.w3.org/2000/svg">
<g clip-path="url(#clip0_31_79)">
<path d="M53.4475 151.776L64.0216 219.811C68.9609 251.592 88.2532 279.319 116.316 294.971C147.95 312.615 186.46 312.566 218.049 294.843L341.902 225.354C348.829 221.467 348.041 211.243 340.6 208.466L297.853 192.515C295.196 191.523 292.234 191.796 289.802 193.256L210.795 240.702C200.264 247.026 189.167 233.436 197.45 224.36L297.642 114.571C302.818 108.9 299.316 99.7466 291.681 98.9875L221.855 92.0458C218.37 91.6994 214.986 93.3372 213.092 96.2861L136.201 216.03C130.446 224.991 116.601 218.857 119.355 208.567L132.601 159.072C134.086 153.525 130.262 147.964 124.556 147.373L63.6184 141.058C57.538 140.427 52.5076 145.729 53.4475 151.776Z" fill="#0C2111" stroke="#0C2111" stroke-width="12" stroke-linecap="round"/>
<path d="M436.051 250.707C430.417 250.707 425.314 249.259 420.742 246.361C416.202 243.431 412.596 239.133 409.924 233.466C407.283 227.767 405.963 220.78 405.963 212.506C405.963 204.006 407.332 196.938 410.068 191.304C412.805 185.637 416.443 181.403 420.983 178.602C425.555 175.769 430.562 174.352 436.003 174.352C440.156 174.352 443.618 175.061 446.387 176.477C449.188 177.862 451.442 179.6 453.148 181.693C454.887 183.754 456.207 185.782 457.108 187.778H457.736V150.591H478.262V249.5H457.978V237.619H457.108C456.142 239.68 454.774 241.724 453.003 243.753C451.264 245.749 448.995 247.407 446.193 248.727C443.424 250.047 440.044 250.707 436.051 250.707ZM442.571 234.335C445.888 234.335 448.689 233.434 450.975 231.631C453.293 229.795 455.064 227.236 456.287 223.952C457.543 220.668 458.171 216.82 458.171 212.409C458.171 207.998 457.559 204.167 456.335 200.915C455.112 197.663 453.341 195.152 451.023 193.381C448.705 191.61 445.888 190.724 442.571 190.724C439.191 190.724 436.341 191.642 434.023 193.477C431.705 195.312 429.95 197.856 428.759 201.108C427.567 204.36 426.972 208.127 426.972 212.409C426.972 216.723 427.567 220.539 428.759 223.855C429.982 227.139 431.737 229.715 434.023 231.582C436.341 233.418 439.191 234.335 442.571 234.335ZM513.61 250.901C508.878 250.901 504.66 250.08 500.957 248.438C497.254 246.763 494.325 244.3 492.167 241.048C490.042 237.764 488.98 233.675 488.98 228.781C488.98 224.66 489.736 221.199 491.25 218.398C492.763 215.597 494.824 213.343 497.432 211.636C500.039 209.93 503.002 208.642 506.318 207.773C509.666 206.903 513.176 206.292 516.846 205.938C521.161 205.487 524.638 205.068 527.278 204.682C529.918 204.263 531.834 203.652 533.025 202.847C534.217 202.042 534.812 200.85 534.812 199.273V198.983C534.812 195.924 533.846 193.558 531.914 191.884C530.015 190.209 527.31 189.372 523.801 189.372C520.098 189.372 517.152 190.193 514.963 191.835C512.773 193.445 511.325 195.473 510.616 197.92L491.588 196.375C492.554 191.867 494.453 187.972 497.287 184.688C500.12 181.371 503.774 178.828 508.25 177.057C512.757 175.254 517.973 174.352 523.897 174.352C528.019 174.352 531.963 174.835 535.73 175.801C539.529 176.767 542.894 178.264 545.824 180.293C548.786 182.321 551.12 184.929 552.826 188.116C554.533 191.272 555.386 195.055 555.386 199.466V249.5H535.875V239.213H535.295C534.104 241.531 532.51 243.576 530.514 245.347C528.518 247.085 526.119 248.454 523.318 249.452C520.517 250.418 517.281 250.901 513.61 250.901ZM519.503 236.702C522.529 236.702 525.201 236.106 527.52 234.915C529.838 233.691 531.657 232.049 532.977 229.989C534.297 227.928 534.957 225.594 534.957 222.986V215.114C534.313 215.532 533.428 215.919 532.301 216.273C531.206 216.595 529.967 216.901 528.582 217.19C527.198 217.448 525.813 217.689 524.429 217.915C523.044 218.108 521.789 218.285 520.662 218.446C518.247 218.8 516.138 219.364 514.335 220.136C512.532 220.909 511.131 221.955 510.133 223.276C509.135 224.563 508.636 226.173 508.636 228.105C508.636 230.906 509.65 233.047 511.679 234.528C513.739 235.977 516.347 236.702 519.503 236.702ZM568.628 249.5V175.318H589.202V249.5H568.628ZM578.963 165.756C575.904 165.756 573.28 164.741 571.091 162.713C568.934 160.652 567.855 158.189 567.855 155.324C567.855 152.491 568.934 150.06 571.091 148.031C573.28 145.971 575.904 144.94 578.963 144.94C582.022 144.94 584.63 145.971 586.787 148.031C588.976 150.06 590.071 152.491 590.071 155.324C590.071 158.189 588.976 160.652 586.787 162.713C584.63 164.741 582.022 165.756 578.963 165.756ZM623.536 150.591V249.5H602.962V150.591H623.536ZM649.999 277.318C647.391 277.318 644.944 277.109 642.658 276.69C640.404 276.304 638.537 275.805 637.056 275.193L641.692 259.835C644.107 260.576 646.28 260.978 648.212 261.043C650.176 261.107 651.866 260.656 653.283 259.69C654.732 258.724 655.907 257.082 656.808 254.764L658.016 251.625L631.405 175.318H653.041L668.399 229.795H669.172L684.675 175.318H706.456L677.624 257.517C676.239 261.509 674.356 264.987 671.973 267.949C669.623 270.943 666.645 273.245 663.039 274.855C659.432 276.497 655.086 277.318 649.999 277.318ZM775.986 196.472L757.151 197.631C756.829 196.021 756.137 194.572 755.074 193.284C754.012 191.964 752.611 190.918 750.873 190.145C749.166 189.34 747.122 188.938 744.739 188.938C741.552 188.938 738.863 189.614 736.674 190.966C734.484 192.286 733.39 194.057 733.39 196.278C733.39 198.049 734.098 199.546 735.515 200.77C736.931 201.993 739.362 202.975 742.807 203.716L756.233 206.42C763.445 207.902 768.822 210.284 772.364 213.568C775.906 216.852 777.677 221.167 777.677 226.511C777.677 231.373 776.244 235.639 773.378 239.31C770.545 242.98 766.649 245.846 761.691 247.906C756.765 249.935 751.082 250.949 744.642 250.949C734.822 250.949 726.998 248.904 721.171 244.815C715.375 240.694 711.979 235.092 710.98 228.009L731.216 226.946C731.828 229.94 733.309 232.226 735.659 233.804C738.01 235.349 741.02 236.122 744.691 236.122C748.297 236.122 751.195 235.43 753.384 234.045C755.605 232.629 756.732 230.81 756.765 228.588C756.732 226.721 755.944 225.191 754.398 224C752.853 222.777 750.47 221.843 747.25 221.199L734.404 218.639C727.159 217.19 721.766 214.679 718.225 211.105C714.715 207.531 712.961 202.975 712.961 197.438C712.961 192.672 714.248 188.567 716.824 185.122C719.432 181.677 723.087 179.021 727.787 177.153C732.52 175.286 738.058 174.352 744.401 174.352C753.77 174.352 761.143 176.332 766.52 180.293C771.929 184.253 775.085 189.646 775.986 196.472ZM808.486 206.614V249.5H787.912V150.591H807.906V188.406H808.775C810.45 184.027 813.154 180.598 816.889 178.119C820.624 175.608 825.309 174.352 830.943 174.352C836.095 174.352 840.586 175.479 844.417 177.733C848.281 179.955 851.275 183.158 853.4 187.344C855.558 191.497 856.62 196.472 856.588 202.267V249.5H836.014V205.938C836.046 201.366 834.887 197.808 832.537 195.264C830.219 192.721 826.967 191.449 822.781 191.449C819.98 191.449 817.501 192.045 815.344 193.236C813.219 194.427 811.544 196.166 810.321 198.452C809.13 200.705 808.518 203.426 808.486 206.614ZM870.059 249.5V175.318H890.633V249.5H870.059ZM880.394 165.756C877.335 165.756 874.711 164.741 872.522 162.713C870.365 160.652 869.286 158.189 869.286 155.324C869.286 152.491 870.365 150.06 872.522 148.031C874.711 145.971 877.335 144.94 880.394 144.94C883.453 144.94 886.061 145.971 888.218 148.031C890.407 150.06 891.502 152.491 891.502 155.324C891.502 158.189 890.407 160.652 888.218 162.713C886.061 164.741 883.453 165.756 880.394 165.756ZM944.286 175.318V190.773H898.502V175.318H944.286ZM908.982 249.5V169.957C908.982 164.58 910.028 160.121 912.121 156.58C914.246 153.038 917.144 150.382 920.814 148.611C924.485 146.84 928.654 145.955 933.323 145.955C936.478 145.955 939.36 146.196 941.968 146.679C944.608 147.162 946.572 147.597 947.86 147.983L944.189 163.438C943.384 163.18 942.386 162.938 941.195 162.713C940.036 162.488 938.844 162.375 937.621 162.375C934.594 162.375 932.485 163.083 931.294 164.5C930.103 165.884 929.507 167.832 929.507 170.344V249.5H908.982ZM993.592 175.318V190.773H948.919V175.318H993.592ZM959.061 157.545H979.635V226.705C979.635 228.604 979.924 230.085 980.504 231.148C981.083 232.178 981.888 232.902 982.919 233.321C983.981 233.74 985.205 233.949 986.589 233.949C987.555 233.949 988.521 233.868 989.487 233.707C990.453 233.514 991.193 233.369 991.708 233.273L994.944 248.582C993.914 248.904 992.465 249.275 990.598 249.693C988.73 250.144 986.46 250.418 983.788 250.514C978.83 250.707 974.483 250.047 970.748 248.534C967.046 247.021 964.164 244.67 962.103 241.483C960.043 238.295 959.029 234.271 959.061 229.409V157.545ZM1051.84 217.915V175.318H1072.42V249.5H1052.67V236.026H1051.89C1050.22 240.372 1047.43 243.866 1043.54 246.506C1039.67 249.146 1034.96 250.466 1029.39 250.466C1024.43 250.466 1020.07 249.339 1016.3 247.085C1012.53 244.831 1009.59 241.628 1007.46 237.474C1005.37 233.321 1004.31 228.347 1004.27 222.551V175.318H1024.85V218.881C1024.88 223.259 1026.06 226.721 1028.37 229.264C1030.69 231.808 1033.8 233.08 1037.69 233.08C1040.17 233.08 1042.49 232.516 1044.65 231.389C1046.81 230.23 1048.54 228.524 1049.86 226.27C1051.22 224.016 1051.88 221.231 1051.84 217.915ZM1086.16 249.5V175.318H1106.73V249.5H1086.16ZM1096.49 165.756C1093.43 165.756 1090.81 164.741 1088.62 162.713C1086.46 160.652 1085.38 158.189 1085.38 155.324C1085.38 152.491 1086.46 150.06 1088.62 148.031C1090.81 145.971 1093.43 144.94 1096.49 144.94C1099.55 144.94 1102.16 145.971 1104.31 148.031C1106.5 150.06 1107.6 152.491 1107.6 155.324C1107.6 158.189 1106.5 160.652 1104.31 162.713C1102.16 164.741 1099.55 165.756 1096.49 165.756Z" fill="#0C2111"/>
</g>
<defs>
<clipPath id="clip0_31_79">
<rect width="1115" height="400" fill="white"/>
</clipPath>
</defs>
</svg>
