<svg width="512" height="512" viewBox="0 0 512 512" fill="none" xmlns="http://www.w3.org/2000/svg">
<g clip-path="url(#clip0_66_2034)">
<rect width="512" height="512" fill="#141414"/>
<rect width="512" height="512" fill="#0C2111"/>
<path d="M103.932 206.075L114.873 276.469C119.984 309.351 139.945 338.041 168.981 354.236C201.711 372.491 241.557 372.441 274.241 354.103L402.388 282.204C409.555 278.183 408.74 267.603 401.041 264.731L356.812 248.226C354.063 247.201 350.998 247.483 348.482 248.994L266.735 298.084C255.839 304.628 244.357 290.567 252.928 281.175L356.594 167.58C361.949 161.712 358.326 152.242 350.426 151.456L278.178 144.274C274.573 143.916 271.072 145.61 269.112 148.661L189.555 272.557C183.601 281.828 169.276 275.482 172.125 264.835L185.83 213.624C187.366 207.885 183.41 202.131 177.507 201.519L114.456 194.985C108.165 194.333 102.96 199.818 103.932 206.075Z" fill="#6FF85A" stroke="#6FF85A" stroke-width="12.4161" stroke-linecap="round"/>
</g>
<defs>
<clipPath id="clip0_66_2034">
<rect width="512" height="512" fill="white"/>
</clipPath>
</defs>
</svg>
