<svg width="1440" height="488" viewBox="0 0 1440 488" fill="none" xmlns="http://www.w3.org/2000/svg">
<g clip-path="url(#clip0_51_2005)">
<path d="M5.70429 410.412C1.90143 410.412 0 409.017 0 406.228C0 403.947 1.64791 402.426 4.94372 401.665L13.6903 400.144C22.3101 398.623 26.62 393.679 26.62 385.313V161.705C26.62 156.381 25.7327 152.831 23.958 151.057C22.4369 149.282 19.0143 147.888 13.6903 146.873L4.94372 145.352C1.64791 144.592 0 143.071 0 140.789C0 138 1.90143 136.606 5.70429 136.606H82.522C102.297 136.606 119.41 142.437 133.861 154.099C148.312 165.507 159.467 181.606 167.326 202.395C175.185 223.184 179.115 247.269 179.115 274.649C179.115 302.284 174.932 326.242 166.565 346.524C158.452 366.805 146.917 382.524 131.959 393.679C117.001 404.834 99.2546 410.412 78.7192 410.412H5.70429ZM80.2403 400.524C102.804 400.524 119.917 389.749 131.579 368.2C143.495 346.65 149.452 315.467 149.452 274.649C149.452 234.086 143.748 202.649 132.34 180.339C121.184 157.775 104.579 146.493 82.522 146.493C63.2542 146.493 53.6203 155.747 53.6203 174.254V372.763C53.6203 382.904 55.6485 390.13 59.7049 394.44C64.0148 398.496 70.8599 400.524 80.2403 400.524Z" fill="#000000"/>
<path d="M224.853 413.834C214.205 413.834 205.458 410.538 198.613 403.947C191.768 397.102 188.346 388.101 188.346 376.946C188.346 366.045 191.768 355.777 198.613 346.143C205.458 336.256 214.839 327.382 226.754 319.523C238.67 311.664 252.234 305.326 267.445 300.509C270.741 299.495 272.389 297.34 272.389 294.044V259.438C272.389 247.269 270.487 238.649 266.684 233.579C262.882 228.255 257.684 225.593 251.093 225.593C244.755 225.593 238.924 228.508 233.6 234.339C228.529 239.917 224.853 249.424 222.571 262.861C221.304 270.973 218.515 276.931 214.205 280.734C210.149 284.283 205.965 286.058 201.656 286.058C194.557 286.058 191.008 282.509 191.008 275.41C191.008 268.058 193.036 260.832 197.092 253.734C201.402 246.382 206.98 239.79 213.825 233.959C220.67 227.874 228.149 223.057 236.262 219.508C244.374 215.959 252.487 214.184 260.6 214.184C285.699 214.184 298.248 228.762 298.248 257.917V374.284C298.248 384.932 300.91 390.256 306.234 390.256C309.53 390.256 312.572 388.101 315.361 383.792C318.15 379.228 319.544 371.622 319.544 360.974C319.544 356.918 321.192 354.89 324.488 354.89C327.53 354.89 329.051 357.045 329.051 361.355C329.051 379.862 325.755 393.299 319.164 401.665C312.826 409.778 305.6 413.834 297.488 413.834C291.403 413.834 286.586 411.426 283.037 406.609C279.487 401.538 277.079 395.58 275.811 388.735C275.558 386.2 274.417 384.932 272.389 384.932C270.614 384.679 268.839 385.82 267.065 388.355C260.98 396.721 254.769 403.059 248.431 407.369C242.093 411.679 234.233 413.834 224.853 413.834ZM235.121 396.341C241.712 396.341 247.797 394.059 253.374 389.496C258.952 384.679 263.515 378.341 267.065 370.482C270.614 362.622 272.389 353.749 272.389 343.862V316.101C272.389 311.284 269.727 309.889 264.403 311.918C248.938 317.495 236.895 325.228 228.276 335.115C219.909 344.749 215.726 356.411 215.726 370.101C215.726 387.594 222.191 396.341 235.121 396.341Z" fill="#000000"/>
<path d="M359.251 180.339C353.927 180.339 349.364 178.437 345.561 174.634C342.012 170.831 340.237 166.014 340.237 160.183C340.237 154.352 342.012 149.662 345.561 146.113C349.364 142.31 353.927 140.409 359.251 140.409C364.575 140.409 369.012 142.31 372.561 146.113C376.111 149.662 377.885 154.352 377.885 160.183C377.885 166.014 376.111 170.831 372.561 174.634C369.012 178.437 364.575 180.339 359.251 180.339ZM327.307 410.412C323.504 410.412 321.603 409.017 321.603 406.228C321.603 403.947 323.251 402.426 326.547 401.665L331.11 400.904C337.448 399.89 341.505 398.369 343.279 396.341C345.054 394.059 345.941 390.256 345.941 384.932V257.156C345.941 252.593 345.181 249.551 343.66 248.029C342.392 246.255 339.984 245.114 336.434 244.607L328.448 243.466C325.152 243.213 323.504 241.818 323.504 239.283C323.504 237.255 325.533 235.86 329.589 235.1C337.448 233.832 343.786 231.804 348.603 229.015C353.42 226.226 358.11 222.804 362.674 218.747C364.956 216.466 366.857 215.325 368.378 215.325C370.66 215.325 371.801 216.846 371.801 219.888V384.932C371.801 390.256 372.561 394.059 374.082 396.341C375.604 398.623 378.519 400.017 382.829 400.524L392.336 401.665C395.125 402.172 396.519 403.566 396.519 405.848C396.519 408.89 394.618 410.412 390.815 410.412H327.307Z" fill="#000000"/>
<path d="M392.966 410.412C389.924 410.412 388.403 409.017 388.403 406.228C388.403 403.693 389.797 402.172 392.586 401.665L397.91 400.904C403.234 400.144 407.163 398.623 409.699 396.341C412.234 394.059 413.501 390.256 413.501 384.932V167.029C413.501 162.465 412.741 159.296 411.22 157.521C409.952 155.747 407.544 154.733 403.994 154.479L395.248 153.338C392.459 152.831 391.065 151.31 391.065 148.775C391.065 146.24 392.459 144.718 395.248 144.211C402.346 142.69 408.431 140.916 413.501 138.887C418.572 136.859 422.755 134.831 426.051 132.803C430.107 130.268 433.15 129 435.178 129C437.967 129 439.361 131.028 439.361 135.085V384.932C439.361 390.256 440.122 394.059 441.643 396.341C443.417 398.369 446.967 399.764 452.291 400.524L461.037 401.665C463.826 402.172 465.22 403.693 465.22 406.228C465.22 409.017 463.699 410.412 460.657 410.412H392.966Z" fill="#000000"/>
<path d="M482.301 488.37C475.455 488.37 470.005 485.962 465.948 481.145C461.892 476.581 459.864 471.257 459.864 465.173C459.864 460.356 461.258 456.299 464.047 453.004C466.836 449.708 470.638 448.06 475.455 448.06C479.512 448.06 482.427 448.947 484.202 450.722C485.977 452.497 487.244 454.525 488.005 456.806C488.765 459.088 489.526 461.116 490.287 462.891C491.047 464.666 492.568 465.553 494.85 465.553C497.639 465.553 500.174 463.525 502.456 459.468C504.737 455.666 507.906 447.426 511.963 434.75C514.498 427.144 516.019 420.553 516.526 414.975C517.287 409.397 517.16 403.44 516.146 397.102C515.385 390.763 513.484 383.031 510.442 373.904L468.991 241.945C467.216 235.86 465.441 231.931 463.667 230.156C462.145 228.381 459.61 227.114 456.061 226.353L450.357 225.212C447.061 224.452 445.413 222.804 445.413 220.269C445.413 217.733 447.187 216.466 450.737 216.466H513.484C517.033 216.466 518.808 217.733 518.808 220.269C518.808 223.057 517.16 224.705 513.864 225.212L507.78 225.973C501.695 226.733 497.766 228.255 495.991 230.536C494.47 232.565 494.596 236.367 496.371 241.945L529.836 353.369C530.597 355.904 531.738 357.172 533.259 357.172C535.033 357.172 536.301 355.904 537.062 353.369L569.386 248.79C571.414 241.945 571.921 236.874 570.907 233.579C570.147 230.029 566.597 227.748 560.259 226.733L552.273 225.212C548.977 224.452 547.329 222.804 547.329 220.269C547.329 217.733 549.104 216.466 552.653 216.466H600.95C604.499 216.466 606.274 217.86 606.274 220.649C606.274 223.184 604.753 224.959 601.71 225.973L598.288 227.114C594.485 228.381 591.316 230.663 588.781 233.959C586.245 237.255 583.583 242.959 580.795 251.072L524.132 427.905C518.554 445.651 513.484 458.835 508.921 467.454C504.611 476.074 500.428 481.652 496.371 484.187C492.315 486.976 487.625 488.37 482.301 488.37Z" fill="#000000"/>
<path d="M707.54 413.834C702.469 413.834 696.765 413.327 690.427 412.313C684.342 411.299 678.511 410.031 672.934 408.51C667.61 406.989 663.427 405.341 660.384 403.566C658.61 402.552 657.215 401.538 656.201 400.524C655.441 399.257 655.06 397.228 655.06 394.44L653.159 334.735C653.159 329.664 654.807 327.129 658.103 327.129C660.891 327.129 662.793 329.411 663.807 333.974L667.229 348.425C675.849 384.679 691.948 402.806 715.526 402.806C728.202 402.806 738.216 398.623 745.568 390.256C753.174 381.637 756.977 369.594 756.977 354.129C756.977 339.171 753.047 325.228 745.188 312.298C737.582 299.368 725.286 286.565 708.3 273.889C689.54 260.452 675.849 247.522 667.229 235.1C658.61 222.424 654.3 208.987 654.3 194.789C654.3 176.029 660.765 161.071 673.694 149.916C686.878 138.507 703.61 132.803 723.892 132.803C731.498 132.803 738.85 133.69 745.949 135.465C753.047 137.24 758.878 139.775 763.442 143.071C764.963 144.085 766.104 145.226 766.864 146.493C767.878 147.761 768.385 149.409 768.385 151.437L769.526 208.86C769.526 213.17 767.878 215.325 764.583 215.325C762.301 215.325 760.653 213.55 759.639 210.001L756.977 200.494C751.399 180.972 745.568 166.775 739.484 157.902C733.653 148.775 725.16 144.211 714.005 144.211C703.103 144.211 694.356 147.761 687.765 154.859C681.427 161.958 678.258 171.972 678.258 184.902C678.258 195.804 681.807 206.198 688.906 216.085C696.004 225.973 708.427 238.015 726.174 252.213C745.188 267.678 759.005 282.635 767.625 297.086C776.498 311.284 780.935 326.495 780.935 342.721C780.935 356.918 777.766 369.341 771.428 379.989C765.09 390.637 756.343 399.003 745.188 405.088C734.287 410.919 721.737 413.834 707.54 413.834Z" fill="#000000"/>
<path d="M787.486 410.412C784.444 410.412 782.923 409.017 782.923 406.228C782.923 403.693 784.317 402.172 787.106 401.665L792.43 400.904C797.754 400.144 801.176 398.623 802.697 396.341C804.472 394.059 805.359 390.256 805.359 384.932V167.029C805.359 162.465 804.599 159.423 803.078 157.902C801.81 156.127 799.402 154.986 795.852 154.479L787.866 153.338C785.077 152.831 783.683 151.31 783.683 148.775C783.683 146.24 785.077 144.718 787.866 144.211C794.965 142.69 800.923 140.916 805.74 138.887C810.557 136.859 814.613 134.831 817.909 132.803C821.965 130.268 825.007 129 827.036 129C829.824 129 831.219 131.028 831.219 135.085V235.86C831.219 238.142 831.979 239.536 833.501 240.043C835.022 240.297 836.923 239.41 839.205 237.381C848.839 228.508 857.332 222.424 864.684 219.128C872.036 215.832 879.769 214.184 887.881 214.184C899.797 214.184 909.177 218.24 916.023 226.353C922.868 234.212 926.29 245.875 926.29 261.339V384.932C926.29 390.256 927.051 394.059 928.572 396.341C930.347 398.369 933.896 399.764 939.22 400.524L947.586 401.665C950.375 402.172 951.769 403.693 951.769 406.228C951.769 409.017 950.248 410.412 947.206 410.412H883.318C879.769 410.412 877.994 409.017 877.994 406.228C877.994 403.693 879.388 402.172 882.177 401.665L887.501 400.904C892.825 400.144 896.248 398.623 897.769 396.341C899.543 394.059 900.431 390.256 900.431 384.932V265.523C900.431 253.1 898.149 244.353 893.586 239.283C889.022 234.212 882.557 231.677 874.191 231.677C866.078 231.677 858.726 234.086 852.135 238.903C845.796 243.466 840.726 249.677 836.923 257.537C833.12 265.142 831.219 273.635 831.219 283.016V384.932C831.219 390.256 831.979 394.059 833.501 396.341C835.275 398.623 838.825 400.017 844.149 400.524L854.416 401.665C857.205 402.172 858.599 403.693 858.599 406.228C858.599 409.017 857.078 410.412 854.036 410.412H787.486Z" fill="#000000"/>
<path d="M983.99 180.339C978.666 180.339 974.102 178.437 970.3 174.634C966.75 170.831 964.975 166.014 964.975 160.183C964.975 154.352 966.75 149.662 970.3 146.113C974.102 142.31 978.666 140.409 983.99 140.409C989.314 140.409 993.75 142.31 997.3 146.113C1000.85 149.662 1002.62 154.352 1002.62 160.183C1002.62 166.014 1000.85 170.831 997.3 174.634C993.75 178.437 989.314 180.339 983.99 180.339ZM952.046 410.412C948.243 410.412 946.341 409.017 946.341 406.228C946.341 403.947 947.989 402.426 951.285 401.665L955.849 400.904C962.187 399.89 966.243 398.369 968.018 396.341C969.792 394.059 970.68 390.256 970.68 384.932V257.156C970.68 252.593 969.919 249.551 968.398 248.029C967.13 246.255 964.722 245.114 961.173 244.607L953.187 243.466C949.891 243.213 948.243 241.818 948.243 239.283C948.243 237.255 950.271 235.86 954.327 235.1C962.187 233.832 968.525 231.804 973.342 229.015C978.159 226.226 982.849 222.804 987.412 218.747C989.694 216.466 991.595 215.325 993.117 215.325C995.398 215.325 996.539 216.846 996.539 219.888V384.932C996.539 390.256 997.3 394.059 998.821 396.341C1000.34 398.623 1003.26 400.017 1007.57 400.524L1017.07 401.665C1019.86 402.172 1021.26 403.566 1021.26 405.848C1021.26 408.89 1019.36 410.412 1015.55 410.412H952.046Z" fill="#000000"/>
<path d="M1020.37 488.37C1016.56 488.37 1014.66 486.976 1014.66 484.187C1014.66 481.398 1016.31 479.877 1019.61 479.624L1024.93 478.863C1030.25 478.102 1033.68 476.581 1035.2 474.3C1036.97 472.018 1037.86 468.215 1037.86 462.891V257.156C1037.86 252.593 1037.1 249.551 1035.58 248.029C1034.31 246.255 1031.9 245.114 1028.35 244.607L1020.37 243.466C1017.07 243.213 1015.42 241.818 1015.42 239.283C1015.42 237.255 1017.45 235.86 1021.51 235.1C1029.37 233.832 1035.32 231.804 1039.38 229.015C1043.69 226.226 1048.13 222.804 1052.69 218.747C1054.97 216.466 1056.87 215.325 1058.4 215.325C1060.68 215.325 1061.82 216.846 1061.82 219.888V231.677C1061.82 233.452 1062.58 234.719 1064.1 235.48C1065.62 235.987 1067.4 235.227 1069.42 233.198L1073.61 229.015C1078.68 223.945 1083.87 220.269 1089.2 217.987C1094.52 215.452 1100.61 214.184 1107.45 214.184C1119.11 214.184 1129.38 218.114 1138.26 225.973C1147.38 233.579 1154.48 244.227 1159.55 257.917C1164.88 271.607 1167.54 287.706 1167.54 306.213C1167.54 327.256 1164.24 345.89 1157.65 362.115C1151.06 378.341 1141.93 391.017 1130.27 400.144C1118.86 409.271 1105.68 413.834 1090.72 413.834C1083.11 413.834 1076.4 412.44 1070.56 409.651C1066 407.623 1063.72 409.017 1063.72 413.834V462.891C1063.72 468.215 1064.48 471.764 1066 473.539C1067.78 475.567 1071.32 476.962 1076.65 477.722L1090.72 479.624C1093.51 480.131 1094.9 481.525 1094.9 483.807C1094.9 486.849 1093 488.37 1089.2 488.37H1020.37ZM1091.86 404.327C1106.06 404.327 1117.47 395.961 1126.09 379.228C1134.96 362.496 1139.4 339.932 1139.4 311.537C1139.4 285.424 1135.59 265.523 1127.99 251.832C1120.38 238.142 1109.61 231.297 1095.66 231.297C1087.04 231.297 1079.56 234.846 1073.23 241.945C1066.89 249.044 1063.72 258.931 1063.72 271.607V367.439C1063.72 378.848 1066.25 387.848 1071.32 394.44C1076.65 401.031 1083.49 404.327 1091.86 404.327Z" fill="#000000"/>
<path d="M1268.44 413.834C1254.75 413.834 1242.58 410.665 1231.93 404.327C1221.54 397.735 1213.43 388.735 1207.59 377.327C1201.76 365.665 1198.85 352.355 1198.85 337.397V161.705C1198.85 156.381 1197.96 152.831 1196.19 151.057C1194.67 149.282 1191.24 147.888 1185.92 146.873L1177.17 145.352C1173.88 144.592 1172.23 143.071 1172.23 140.789C1172.23 138 1174.13 136.606 1177.93 136.606H1247.52C1251.33 136.606 1253.23 138.127 1253.23 141.169C1253.23 143.451 1251.83 144.845 1249.05 145.352L1238.78 146.873C1233.71 147.634 1230.29 149.028 1228.51 151.057C1226.74 153.085 1225.85 156.761 1225.85 162.085V337.777C1225.85 357.045 1230.16 372.003 1238.78 382.651C1247.4 393.299 1259.44 398.623 1274.91 398.623C1290.62 398.623 1302.79 393.299 1311.41 382.651C1320.03 372.003 1324.34 357.045 1324.34 337.777V169.691C1324.34 156 1320.03 148.395 1311.41 146.873L1301.15 145.352C1298.36 144.845 1296.96 143.451 1296.96 141.169C1296.96 138.127 1298.86 136.606 1302.67 136.606H1357.43C1361.23 136.606 1363.13 138 1363.13 140.789C1363.13 143.071 1361.48 144.592 1358.19 145.352L1349.44 146.873C1340.82 148.395 1336.51 155.874 1336.51 169.31V337.397C1336.51 360.467 1330.3 378.975 1317.88 392.918C1305.46 406.862 1288.98 413.834 1268.44 413.834Z" fill="#000000"/>
<path d="M1365.46 410.412C1361.66 410.412 1359.76 409.017 1359.76 406.228C1359.76 403.947 1361.41 402.426 1364.7 401.665L1373.45 400.144C1378.77 399.13 1382.2 397.735 1383.72 395.961C1385.49 394.186 1386.38 390.637 1386.38 385.313V161.705C1386.38 156.381 1385.49 152.831 1383.72 151.057C1382.2 149.282 1378.77 147.888 1373.45 146.873L1364.7 145.352C1361.41 144.592 1359.76 143.071 1359.76 140.789C1359.76 138 1361.66 136.606 1365.46 136.606H1434.3C1438.1 136.606 1440 138 1440 140.789C1440 143.071 1438.35 144.592 1435.06 145.352L1426.31 146.873C1420.99 147.888 1417.44 149.282 1415.66 151.057C1414.14 152.831 1413.38 156.381 1413.38 161.705V385.313C1413.38 390.637 1414.14 394.186 1415.66 395.961C1417.44 397.735 1420.99 399.13 1426.31 400.144L1435.06 401.665C1438.35 402.426 1440 403.947 1440 406.228C1440 409.017 1438.1 410.412 1434.3 410.412H1365.46Z" fill="#000000"/>
</g>
<defs>
<clipPath id="clip0_51_2005">
<rect width="1440" height="488" fill="white"/>
</clipPath>
</defs>
</svg>
