<svg width="863" height="400" viewBox="0 0 863 400" fill="none" xmlns="http://www.w3.org/2000/svg">
<g clip-path="url(#clip0_31_79)">
<path d="M53.4475 151.776L64.0216 219.811C68.9609 251.592 88.2532 279.319 116.316 294.971C147.95 312.615 186.46 312.566 218.049 294.843L341.902 225.354C348.829 221.467 348.041 211.243 340.6 208.466L297.853 192.515C295.196 191.523 292.234 191.796 289.802 193.256L210.795 240.702C200.264 247.026 189.167 233.436 197.45 224.36L297.642 114.571C302.818 108.9 299.316 99.7466 291.681 98.9875L221.855 92.0458C218.37 91.6994 214.986 93.3372 213.092 96.2861L136.201 216.03C130.446 224.991 116.601 218.857 119.355 208.567L132.601 159.072C134.086 153.525 130.262 147.964 124.556 147.373L63.6184 141.058C57.538 140.427 52.5076 145.729 53.4475 151.776Z" fill="#0C2111" stroke="#0C2111" stroke-width="12" stroke-linecap="round"/>
<path d="M423.68 233.281C420.034 233.281 416.732 232.344 413.774 230.469C410.837 228.573 408.503 225.792 406.774 222.125C405.066 218.437 404.212 213.917 404.212 208.562C404.212 203.062 405.097 198.49 406.868 194.844C408.639 191.177 410.993 188.437 413.93 186.625C416.889 184.792 420.128 183.875 423.649 183.875C426.337 183.875 428.576 184.333 430.368 185.25C432.18 186.146 433.639 187.271 434.743 188.625C435.868 189.958 436.722 191.271 437.305 192.562H437.712V168.5H450.993V232.5H437.868V224.812H437.305C436.68 226.146 435.795 227.469 434.649 228.781C433.524 230.073 432.055 231.146 430.243 232C428.451 232.854 426.264 233.281 423.68 233.281ZM427.899 222.687C430.045 222.687 431.857 222.104 433.337 220.937C434.837 219.75 435.982 218.094 436.774 215.969C437.587 213.844 437.993 211.354 437.993 208.5C437.993 205.646 437.597 203.167 436.805 201.062C436.014 198.958 434.868 197.333 433.368 196.187C431.868 195.042 430.045 194.469 427.899 194.469C425.712 194.469 423.868 195.062 422.368 196.25C420.868 197.437 419.732 199.083 418.962 201.187C418.191 203.292 417.805 205.729 417.805 208.5C417.805 211.292 418.191 213.76 418.962 215.906C419.753 218.031 420.889 219.698 422.368 220.906C423.868 222.094 425.712 222.687 427.899 222.687ZM473.866 233.406C470.803 233.406 468.074 232.875 465.678 231.812C463.282 230.729 461.386 229.135 459.991 227.031C458.616 224.906 457.928 222.26 457.928 219.094C457.928 216.427 458.418 214.187 459.397 212.375C460.376 210.563 461.709 209.104 463.397 208C465.084 206.896 467.001 206.062 469.147 205.5C471.314 204.937 473.584 204.542 475.959 204.312C478.751 204.021 481.001 203.75 482.709 203.5C484.418 203.229 485.657 202.833 486.428 202.312C487.199 201.792 487.584 201.021 487.584 200V199.812C487.584 197.833 486.959 196.302 485.709 195.219C484.48 194.135 482.73 193.594 480.459 193.594C478.064 193.594 476.157 194.125 474.741 195.187C473.324 196.229 472.386 197.542 471.928 199.125L459.616 198.125C460.241 195.208 461.47 192.687 463.303 190.562C465.136 188.417 467.501 186.771 470.397 185.625C473.314 184.458 476.689 183.875 480.522 183.875C483.189 183.875 485.741 184.187 488.178 184.812C490.636 185.437 492.814 186.406 494.709 187.719C496.626 189.031 498.136 190.719 499.241 192.781C500.345 194.823 500.897 197.271 500.897 200.125V232.5H488.272V225.844H487.897C487.126 227.344 486.095 228.667 484.803 229.812C483.511 230.937 481.959 231.823 480.147 232.469C478.334 233.094 476.241 233.406 473.866 233.406ZM477.678 224.219C479.636 224.219 481.366 223.833 482.866 223.062C484.366 222.271 485.543 221.208 486.397 219.875C487.251 218.542 487.678 217.031 487.678 215.344V210.25C487.261 210.521 486.689 210.771 485.959 211C485.251 211.208 484.449 211.406 483.553 211.594C482.657 211.76 481.761 211.917 480.866 212.062C479.97 212.187 479.157 212.302 478.428 212.406C476.866 212.635 475.501 213 474.334 213.5C473.168 214 472.261 214.677 471.616 215.531C470.97 216.365 470.647 217.406 470.647 218.656C470.647 220.469 471.303 221.854 472.616 222.812C473.949 223.75 475.636 224.219 477.678 224.219ZM509.465 232.5V184.5H522.777V232.5H509.465ZM516.152 178.312C514.173 178.312 512.475 177.656 511.059 176.344C509.663 175.01 508.965 173.417 508.965 171.562C508.965 169.729 509.663 168.156 511.059 166.844C512.475 165.51 514.173 164.844 516.152 164.844C518.132 164.844 519.819 165.51 521.215 166.844C522.632 168.156 523.34 169.729 523.34 171.562C523.34 173.417 522.632 175.01 521.215 176.344C519.819 177.656 518.132 178.312 516.152 178.312ZM544.994 168.5V232.5H531.682V168.5H544.994ZM562.117 250.5C560.429 250.5 558.846 250.365 557.367 250.094C555.909 249.844 554.7 249.521 553.742 249.125L556.742 239.188C558.304 239.667 559.711 239.927 560.961 239.969C562.231 240.01 563.325 239.719 564.242 239.094C565.179 238.469 565.94 237.406 566.523 235.906L567.304 233.875L550.086 184.5H564.086L574.023 219.75H574.523L584.554 184.5H598.648L579.992 237.688C579.096 240.271 577.877 242.521 576.336 244.437C574.815 246.375 572.888 247.865 570.554 248.906C568.221 249.969 565.409 250.5 562.117 250.5ZM643.638 198.187L631.451 198.937C631.242 197.896 630.794 196.958 630.107 196.125C629.419 195.271 628.513 194.594 627.388 194.094C626.284 193.573 624.961 193.312 623.419 193.312C621.357 193.312 619.617 193.75 618.201 194.625C616.784 195.479 616.076 196.625 616.076 198.062C616.076 199.208 616.534 200.177 617.451 200.969C618.367 201.76 619.94 202.396 622.169 202.875L630.857 204.625C635.524 205.583 639.003 207.125 641.294 209.25C643.586 211.375 644.732 214.167 644.732 217.625C644.732 220.771 643.805 223.531 641.951 225.906C640.117 228.281 637.596 230.135 634.388 231.469C631.201 232.781 627.524 233.438 623.357 233.438C617.003 233.438 611.94 232.115 608.169 229.469C604.419 226.802 602.221 223.177 601.576 218.594L614.669 217.906C615.065 219.844 616.024 221.323 617.544 222.344C619.065 223.344 621.013 223.844 623.388 223.844C625.721 223.844 627.596 223.396 629.013 222.5C630.451 221.583 631.18 220.406 631.201 218.969C631.18 217.76 630.669 216.771 629.669 216C628.669 215.208 627.128 214.604 625.044 214.187L616.732 212.531C612.044 211.594 608.555 209.969 606.263 207.656C603.992 205.344 602.857 202.396 602.857 198.812C602.857 195.729 603.69 193.073 605.357 190.844C607.044 188.615 609.409 186.896 612.451 185.687C615.513 184.479 619.096 183.875 623.201 183.875C629.263 183.875 634.034 185.156 637.513 187.719C641.013 190.281 643.055 193.771 643.638 198.187ZM664.667 204.75V232.5H651.355V168.5H664.292V192.969H664.855C665.938 190.135 667.688 187.917 670.105 186.312C672.521 184.687 675.553 183.875 679.198 183.875C682.532 183.875 685.438 184.604 687.917 186.062C690.417 187.5 692.355 189.573 693.73 192.281C695.126 194.969 695.813 198.187 695.792 201.937V232.5H682.48V204.312C682.501 201.354 681.751 199.052 680.23 197.406C678.73 195.76 676.626 194.937 673.917 194.937C672.105 194.937 670.501 195.323 669.105 196.094C667.73 196.865 666.646 197.99 665.855 199.469C665.084 200.927 664.688 202.688 664.667 204.75ZM704.509 232.5V184.5H717.821V232.5H704.509ZM711.196 178.312C709.217 178.312 707.519 177.656 706.102 176.344C704.707 175.01 704.009 173.417 704.009 171.562C704.009 169.729 704.707 168.156 706.102 166.844C707.519 165.51 709.217 164.844 711.196 164.844C713.175 164.844 714.863 165.51 716.259 166.844C717.675 168.156 718.384 169.729 718.384 171.562C718.384 173.417 717.675 175.01 716.259 176.344C714.863 177.656 713.175 178.312 711.196 178.312ZM752.538 184.5V194.5H722.913V184.5H752.538ZM729.694 232.5V181.031C729.694 177.552 730.371 174.667 731.725 172.375C733.1 170.083 734.975 168.365 737.35 167.219C739.725 166.073 742.423 165.5 745.444 165.5C747.486 165.5 749.35 165.656 751.038 165.969C752.746 166.281 754.017 166.562 754.85 166.812L752.475 176.812C751.954 176.646 751.309 176.49 750.538 176.344C749.788 176.198 749.017 176.125 748.225 176.125C746.267 176.125 744.902 176.583 744.132 177.5C743.361 178.396 742.975 179.656 742.975 181.281V232.5H729.694ZM784.442 184.5V194.5H755.536V184.5H784.442ZM762.098 173H775.411V217.75C775.411 218.979 775.598 219.937 775.973 220.625C776.348 221.292 776.869 221.76 777.536 222.031C778.223 222.302 779.015 222.437 779.911 222.437C780.536 222.437 781.161 222.385 781.786 222.281C782.411 222.156 782.89 222.062 783.223 222L785.317 231.906C784.65 232.115 783.713 232.354 782.504 232.625C781.296 232.917 779.827 233.094 778.098 233.156C774.89 233.281 772.077 232.854 769.661 231.875C767.265 230.896 765.4 229.375 764.067 227.312C762.734 225.25 762.077 222.646 762.098 219.5V173ZM822.135 212.062V184.5H835.447V232.5H822.666V223.781H822.166C821.083 226.594 819.281 228.854 816.76 230.562C814.26 232.271 811.208 233.125 807.604 233.125C804.395 233.125 801.572 232.396 799.135 230.938C796.697 229.479 794.791 227.406 793.416 224.719C792.062 222.031 791.375 218.812 791.354 215.062V184.5H804.666V212.687C804.687 215.521 805.447 217.76 806.947 219.406C808.447 221.052 810.458 221.875 812.979 221.875C814.583 221.875 816.083 221.51 817.479 220.781C818.875 220.031 820 218.927 820.854 217.469C821.729 216.01 822.156 214.208 822.135 212.062ZM844.336 232.5V184.5H857.648V232.5H844.336ZM851.023 178.312C849.044 178.312 847.346 177.656 845.93 176.344C844.534 175.01 843.836 173.417 843.836 171.562C843.836 169.729 844.534 168.156 845.93 166.844C847.346 165.51 849.044 164.844 851.023 164.844C853.003 164.844 854.69 165.51 856.086 166.844C857.503 168.156 858.211 169.729 858.211 171.562C858.211 173.417 857.503 175.01 856.086 176.344C854.69 177.656 853.003 178.312 851.023 178.312Z" fill="#0C2111"/>
</g>
<defs>
<clipPath id="clip0_31_79">
<rect width="863" height="400" fill="white"/>
</clipPath>
</defs>
</svg>
