<svg width="1063" height="400" viewBox="0 0 1063 400" fill="none" xmlns="http://www.w3.org/2000/svg">
  <!-- Source of truth: edit here then copy to public/icon.svg (or ask sync). -->
<g clip-path="url(#clip0_31_79)">
<path d="M53.4475 151.776L64.0216 219.811C68.9609 251.592 88.2532 279.319 116.316 294.971C147.95 312.615 186.46 312.566 218.049 294.843L341.902 225.354C348.829 221.467 348.041 211.243 340.6 208.466L297.853 192.515C295.196 191.523 292.234 191.796 289.802 193.256L210.795 240.702C200.264 247.026 189.167 233.436 197.45 224.36L297.642 114.571C302.818 108.9 299.316 99.7466 291.681 98.9875L221.855 92.0458C218.37 91.6994 214.986 93.3372 213.092 96.2861L136.201 216.03C130.446 224.991 116.601 218.857 119.355 208.567L132.601 159.072C134.086 153.525 130.262 147.964 124.556 147.373L63.6184 141.058C57.538 140.427 52.5076 145.729 53.4475 151.776Z" fill="#0C2111" stroke="#0C2111" stroke-width="12" stroke-linecap="round"/>
<path d="M435.963 249.266C430.306 249.266 425.244 247.813 420.775 244.906C416.306 242 412.775 237.781 410.181 232.25C407.588 226.719 406.291 220 406.291 212.094C406.291 204.094 407.603 197.344 410.228 191.844C412.884 186.312 416.463 182.141 420.963 179.328C425.463 176.484 430.478 175.063 436.009 175.063C440.228 175.063 443.697 175.781 446.416 177.219C449.134 178.625 451.291 180.328 452.884 182.328C454.478 184.297 455.713 186.156 456.588 187.906H457.291V152H474.306V248H457.619V236.656H456.588C455.713 238.406 454.447 240.266 452.791 242.234C451.134 244.172 448.947 245.828 446.228 247.203C443.509 248.578 440.088 249.266 435.963 249.266ZM440.697 235.344C444.291 235.344 447.353 234.375 449.884 232.437C452.416 230.469 454.338 227.734 455.65 224.234C456.963 220.734 457.619 216.656 457.619 212C457.619 207.344 456.963 203.297 455.65 199.859C454.369 196.422 452.463 193.75 449.931 191.844C447.431 189.937 444.353 188.984 440.697 188.984C436.916 188.984 433.759 189.969 431.228 191.937C428.697 193.906 426.791 196.625 425.509 200.094C424.228 203.562 423.588 207.531 423.588 212C423.588 216.5 424.228 220.516 425.509 224.047C426.822 227.547 428.744 230.312 431.275 232.344C433.838 234.344 436.978 235.344 440.697 235.344ZM510.467 249.453C505.905 249.453 501.795 248.641 498.139 247.016C494.514 245.359 491.639 242.922 489.514 239.703C487.42 236.484 486.373 232.516 486.373 227.797C486.373 223.734 487.123 220.375 488.623 217.719C490.123 215.062 492.17 212.938 494.764 211.344C497.358 209.75 500.28 208.547 503.53 207.734C506.811 206.891 510.201 206.281 513.701 205.906C517.92 205.469 521.342 205.078 523.967 204.734C526.592 204.359 528.498 203.797 529.686 203.047C530.905 202.266 531.514 201.062 531.514 199.437V199.156C531.514 195.625 530.467 192.891 528.373 190.953C526.28 189.016 523.264 188.047 519.326 188.047C515.17 188.047 511.873 188.953 509.436 190.766C507.03 192.578 505.405 194.719 504.561 197.187L488.717 194.937C489.967 190.562 492.03 186.906 494.905 183.969C497.78 181 501.295 178.781 505.451 177.312C509.608 175.812 514.201 175.063 519.233 175.063C522.701 175.063 526.155 175.469 529.592 176.281C533.03 177.094 536.17 178.437 539.014 180.312C541.858 182.156 544.139 184.672 545.858 187.859C547.608 191.047 548.483 195.031 548.483 199.812V248H532.17V238.109H531.608C530.576 240.109 529.123 241.984 527.248 243.734C525.405 245.453 523.076 246.844 520.264 247.906C517.483 248.938 514.217 249.453 510.467 249.453ZM514.873 236.984C518.28 236.984 521.233 236.312 523.733 234.969C526.233 233.594 528.155 231.781 529.498 229.531C530.873 227.281 531.561 224.828 531.561 222.172V213.687C531.03 214.125 530.123 214.531 528.842 214.906C527.592 215.281 526.186 215.609 524.623 215.891C523.061 216.172 521.514 216.422 519.983 216.641C518.451 216.859 517.123 217.047 515.998 217.203C513.467 217.547 511.201 218.109 509.201 218.891C507.201 219.672 505.623 220.766 504.467 222.172C503.311 223.547 502.733 225.328 502.733 227.516C502.733 230.641 503.873 233 506.155 234.594C508.436 236.187 511.342 236.984 514.873 236.984ZM562.905 248V176H579.874V248H562.905ZM571.436 165.781C568.749 165.781 566.436 164.891 564.499 163.109C562.561 161.297 561.593 159.125 561.593 156.594C561.593 154.031 562.561 151.859 564.499 150.078C566.436 148.266 568.749 147.359 571.436 147.359C574.155 147.359 576.468 148.266 578.374 150.078C580.311 151.859 581.28 154.031 581.28 156.594C581.28 159.125 580.311 161.297 578.374 163.109C576.468 164.891 574.155 165.781 571.436 165.781ZM611.652 152V248H594.683V152H611.652ZM637.008 275C634.695 275 632.555 274.813 630.586 274.438C628.649 274.094 627.102 273.688 625.945 273.219L629.883 260C632.352 260.719 634.555 261.063 636.492 261.031C638.43 261 640.133 260.391 641.602 259.203C643.102 258.047 644.367 256.109 645.399 253.391L646.852 249.5L620.742 176H638.742L655.336 230.375H656.086L672.727 176H690.774L661.945 256.719C660.602 260.531 658.82 263.797 656.602 266.516C654.383 269.266 651.664 271.359 648.445 272.797C645.258 274.266 641.445 275 637.008 275ZM756.782 195.031L741.313 196.719C740.876 195.156 740.11 193.688 739.016 192.312C737.954 190.938 736.516 189.828 734.704 188.984C732.891 188.141 730.673 187.719 728.048 187.719C724.516 187.719 721.548 188.484 719.141 190.016C716.766 191.547 715.595 193.531 715.626 195.969C715.595 198.062 716.36 199.766 717.923 201.078C719.516 202.391 722.141 203.469 725.798 204.313L738.079 206.937C744.891 208.406 749.954 210.734 753.266 213.922C756.61 217.109 758.298 221.281 758.329 226.437C758.298 230.969 756.97 234.969 754.345 238.437C751.751 241.875 748.141 244.562 743.516 246.5C738.891 248.437 733.579 249.406 727.579 249.406C718.766 249.406 711.673 247.563 706.298 243.875C700.923 240.156 697.72 234.984 696.688 228.359L713.235 226.766C713.985 230.016 715.579 232.469 718.016 234.125C720.454 235.781 723.626 236.609 727.532 236.609C731.563 236.609 734.798 235.781 737.235 234.125C739.704 232.469 740.938 230.422 740.938 227.984C740.938 225.922 740.141 224.219 738.548 222.875C736.985 221.531 734.548 220.5 731.235 219.781L718.954 217.203C712.048 215.766 706.938 213.344 703.626 209.937C700.313 206.5 698.673 202.156 698.704 196.906C698.673 192.469 699.876 188.625 702.313 185.375C704.782 182.094 708.204 179.562 712.579 177.781C716.985 175.969 722.063 175.063 727.813 175.063C736.251 175.063 742.891 176.859 747.735 180.453C752.61 184.047 755.626 188.906 756.782 195.031ZM786.65 205.812V248H769.681V152H786.275V188.234H787.119C788.806 184.172 791.415 180.969 794.947 178.625C798.509 176.25 803.04 175.063 808.54 175.063C813.54 175.063 817.9 176.109 821.619 178.203C825.337 180.297 828.212 183.359 830.244 187.391C832.306 191.422 833.337 196.344 833.337 202.156V248H816.369V204.781C816.369 199.937 815.119 196.172 812.619 193.484C810.15 190.766 806.681 189.406 802.212 189.406C799.212 189.406 796.525 190.062 794.15 191.375C791.806 192.656 789.962 194.516 788.619 196.953C787.306 199.391 786.65 202.344 786.65 205.812ZM847.994 248V176H864.963V248H847.994ZM856.525 165.781C853.838 165.781 851.525 164.891 849.588 163.109C847.65 161.297 846.682 159.125 846.682 156.594C846.682 154.031 847.65 151.859 849.588 150.078C851.525 148.266 853.838 147.359 856.525 147.359C859.244 147.359 861.557 148.266 863.463 150.078C865.4 151.859 866.369 154.031 866.369 156.594C866.369 159.125 865.4 161.297 863.463 163.109C861.557 164.891 859.244 165.781 856.525 165.781ZM879.772 275V176H896.46V187.906H897.444C898.319 186.156 899.553 184.297 901.147 182.328C902.741 180.328 904.897 178.625 907.616 177.219C910.335 175.781 913.803 175.063 918.022 175.063C923.585 175.063 928.6 176.484 933.069 179.328C937.569 182.141 941.132 186.312 943.757 191.844C946.413 197.344 947.741 204.094 947.741 212.094C947.741 220 946.444 226.719 943.85 232.25C941.257 237.781 937.725 242 933.257 244.906C928.788 247.813 923.725 249.266 918.069 249.266C913.944 249.266 910.522 248.578 907.803 247.203C905.085 245.828 902.897 244.172 901.241 242.234C899.616 240.266 898.35 238.406 897.444 236.656H896.741V275H879.772ZM896.413 212C896.413 216.656 897.069 220.734 898.382 224.234C899.725 227.734 901.647 230.469 904.147 232.437C906.678 234.375 909.741 235.344 913.335 235.344C917.085 235.344 920.225 234.344 922.757 232.344C925.288 230.312 927.194 227.547 928.475 224.047C929.788 220.516 930.444 216.5 930.444 212C930.444 207.531 929.803 203.562 928.522 200.094C927.241 196.625 925.335 193.906 922.803 191.937C920.272 189.969 917.116 188.984 913.335 188.984C909.71 188.984 906.632 189.937 904.1 191.844C901.569 193.75 899.647 196.422 898.335 199.859C897.053 203.297 896.413 207.344 896.413 212ZM1005.52 217.719V176H1022.49V248H1006.04V235.203H1005.29C1003.66 239.234 1000.99 242.531 997.273 245.094C993.585 247.656 989.038 248.938 983.632 248.938C978.913 248.938 974.742 247.891 971.117 245.797C967.523 243.672 964.71 240.594 962.679 236.563C960.648 232.5 959.632 227.594 959.632 221.844V176H976.601V219.219C976.601 223.781 977.851 227.406 980.351 230.094C982.851 232.781 986.132 234.125 990.195 234.125C992.695 234.125 995.117 233.516 997.46 232.297C999.804 231.078 1001.73 229.266 1003.23 226.859C1004.76 224.422 1005.52 221.375 1005.52 217.719ZM1037.3 248V176H1054.27V248H1037.3ZM1045.83 165.781C1043.14 165.781 1040.83 164.891 1038.89 163.109C1036.96 161.297 1035.99 159.125 1035.99 156.594C1035.99 154.031 1036.96 151.859 1038.89 150.078C1040.83 148.266 1043.14 147.359 1045.83 147.359C1048.55 147.359 1050.86 148.266 1052.77 150.078C1054.71 151.859 1055.68 154.031 1055.68 156.594C1055.68 159.125 1054.71 161.297 1052.77 163.109C1050.86 164.891 1048.55 165.781 1045.83 165.781Z" fill="#0C2111"/>
</g>
<defs>
<clipPath id="clip0_31_79">
<rect width="1063" height="400" fill="white"/>
</clipPath>
</defs>
</svg>
